<mxfile host="app.diagrams.net" modified="2023-12-21T01:11:38.172Z" agent="Mozilla/5.0 (Macintosh; Intel Mac OS X 10_15_7) AppleWebKit/537.36 (KHTML, like Gecko) Chrome/116.0.0.0 Safari/537.36" version="22.1.5" etag="V3lz7LfOaNnxwRMpMZUA" type="github">
  <diagram name="第 1 页" id="4NMYZlMSLvx7ROPDdtVt">
    <mxGraphModel>
      <root>
        <mxCell id="0" />
        <mxCell id="1" parent="0" />
      </root>
    </mxGraphModel>
  </diagram>
</mxfile>
